<?xml version="1.0" encoding="UTF-8"?>
<svg width="1280px" height="457px" viewBox="0 0 1280 457" version="1.1" xmlns="http://www.w3.org/2000/svg" xmlns:xlink="http://www.w3.org/1999/xlink">
    <!-- Generator: Sketch 44.1 (41455) - http://www.bohemiancoding.com/sketch -->
    <title>events-block</title>
    <desc>Created with Sketch.</desc>
    <defs></defs>
    <g id="Pattern-Library" stroke="none" stroke-width="1" fill="none" fill-rule="evenodd">
        <g id="events-block">
            <rect id="Rectangle" fill="#4A4A4A" x="0" y="0" width="1280" height="457"></rect>
            <text id="Upcoming-BDC-events" font-family="HelveticaNeue-Bold, Helvetica Neue" font-size="41" font-weight="bold" line-spacing="28" fill="#FFFFFF">
                <tspan x="153" y="105">Upcoming BDC events lorem ipsum dolor</tspan>
            </text>
            <g id="Group-5" transform="translate(153.000000, 108.000000)" fill="#4990E2">
                <text id="View-all" font-family="HelveticaNeue-Bold, Helvetica Neue" font-size="20" font-weight="bold" line-spacing="34">
                    <tspan x="0" y="20">View all</tspan>
                </text>
                <path d="M91.5,19.5 L161.5,19.5" id="Line-Copy-8" stroke="#4990E2" stroke-linecap="square"></path>
                <path id="Line-Copy-8-decoration-1" d="M161.5,19.5 L150.7,16.5 L150.7,22.5 L161.5,19.5 Z" stroke="#4990E2" stroke-linecap="square"></path>
            </g>
            <g id="Group-7" transform="translate(202.000000, 214.000000)">
                <text id="OCTober-25" font-family="HelveticaNeue-Bold, Helvetica Neue" font-size="14" font-weight="bold" letter-spacing="1.5" fill="#FFFFFF">
                    <tspan x="0" y="14">OCTobe</tspan>
                    <tspan x="62.41" y="14">r 25</tspan>
                </text>
                <text id="Event-title-lorem-ip" font-family="HelveticaNeue-Bold, Helvetica Neue" font-size="20" font-weight="bold" line-spacing="30" fill="#4990E2">
                    <tspan x="0" y="44">Event title lorem </tspan>
                    <tspan x="0" y="74">ipsum dolor </tspan>
                </text>
                <text id="Maecenas-faucibus-mo" font-family="HelveticaNeue, Helvetica Neue" font-size="14" font-weight="normal" line-spacing="20" letter-spacing="0.933333337" fill="#FFFFFF">
                    <tspan x="0" y="140">Maecenas faucibus mollis </tspan>
                    <tspan x="0" y="160">interdum lorem dolor.</tspan>
                </text>
                <text id="1-pm–4-pm" font-family="HelveticaNeue, Helvetica Neue" font-size="14" font-weight="normal" letter-spacing="0.933333337" fill="#FFFFFF">
                    <tspan x="2.75999996" y="118">1 pm–4 pm</tspan>
                </text>
            </g>
            <g id="Group-7-Copy" transform="translate(918.000000, 214.000000)">
                <text id="OCTober-25" font-family="HelveticaNeue-Bold, Helvetica Neue" font-size="14" font-weight="bold" letter-spacing="1.5" fill="#FFFFFF">
                    <tspan x="0" y="14">OCTobe</tspan>
                    <tspan x="62.41" y="14">r 25</tspan>
                </text>
                <text id="Event-title-lorem-ip" font-family="HelveticaNeue-Bold, Helvetica Neue" font-size="20" font-weight="bold" line-spacing="30" fill="#4990E2">
                    <tspan x="0" y="44">Event title lorem </tspan>
                    <tspan x="0" y="74">ipsum dolor </tspan>
                </text>
                <text id="Maecenas-faucibus-mo" font-family="HelveticaNeue, Helvetica Neue" font-size="14" font-weight="normal" line-spacing="20" letter-spacing="0.933333337" fill="#FFFFFF">
                    <tspan x="0" y="140">Maecenas faucibus mollis </tspan>
                    <tspan x="0" y="160">interdum lorem dolor.</tspan>
                </text>
                <text id="1-pm–4-pm" font-family="HelveticaNeue, Helvetica Neue" font-size="14" font-weight="normal" letter-spacing="0.933333337" fill="#FFFFFF">
                    <tspan x="2.75999996" y="118">1 pm–4 pm</tspan>
                </text>
            </g>
            <g id="Group-7-Copy-2" transform="translate(560.000000, 214.000000)">
                <text id="OCTober-25" font-family="HelveticaNeue-Bold, Helvetica Neue" font-size="14" font-weight="bold" letter-spacing="1.5" fill="#FFFFFF">
                    <tspan x="0" y="14">OCTobe</tspan>
                    <tspan x="62.41" y="14">r 25</tspan>
                </text>
                <text id="Event-title-lorem-ip" font-family="HelveticaNeue-Bold, Helvetica Neue" font-size="20" font-weight="bold" line-spacing="30" fill="#4990E2">
                    <tspan x="0" y="44">Event title lorem </tspan>
                    <tspan x="0" y="74">ipsum dolor </tspan>
                </text>
                <text id="Maecenas-faucibus-mo" font-family="HelveticaNeue, Helvetica Neue" font-size="14" font-weight="normal" line-spacing="20" letter-spacing="0.933333337" fill="#FFFFFF">
                    <tspan x="0" y="140">Maecenas faucibus mollis </tspan>
                    <tspan x="0" y="160">interdum lorem dolor.</tspan>
                </text>
                <text id="1-pm–4-pm" font-family="HelveticaNeue, Helvetica Neue" font-size="14" font-weight="normal" letter-spacing="0.933333337" fill="#FFFFFF">
                    <tspan x="2.75999996" y="118">1 pm–4 pm</tspan>
                </text>
            </g>
            <g id="count-with-letter" transform="translate(101.000000, 243.000000)">
                <g id="Group-3">
                    <rect id="Rectangle-7" fill="#000000" x="0" y="0" width="20" height="18"></rect>
                    <g id="Group-34" transform="translate(18.000000, 0.000000)">
                        <path d="M57,23.4017629 L57,3 C57,1.34314575 55.6568542,3.66629817e-15 54,-4.4408921e-16 L54,0 L3,0 L3,-4.4408921e-16 C1.34314575,-1.39730022e-16 -6.46995335e-16,1.34314575 -4.4408921e-16,3 L0,3 L-4.4408921e-16,51 C3.43777239e-15,52.6568542 1.34314575,54 3,54 L3,54 L54,54 C55.6568542,54 57,52.6568542 57,51 L57,51 L57,29.6753855 L72.6152344,26.5385742 L57,23.4017629 Z" id="Combined-Shape" fill="#F5E900"></path>
                        <text id="CHAR" font-family="HelveticaNeue-Medium, Helvetica Neue" font-size="10" font-weight="400" line-spacing="13" letter-spacing="0.75" fill="#000000">
                            <tspan x="12.925" y="48">CHAR</tspan>
                        </text>
                        <text id="170" font-family="HelveticaNeue-CondensedBold, Helvetica Neue" font-size="13" font-style="condensed" font-weight="bold" line-spacing="13" letter-spacing="0.959999979" fill="#000000">
                            <tspan x="21" y="34">60</tspan>
                        </text>
                        <text id="HEADER" font-family="HelveticaNeue-Medium, Helvetica Neue" font-size="10" font-weight="400" line-spacing="13" letter-spacing="0.409090906" fill="#000000">
                            <tspan x="18.1572727" y="15">Title</tspan>
                        </text>
                    </g>
                    <text id="A" font-family="HelveticaNeue-Bold, Helvetica Neue" font-size="11" font-weight="bold" fill="#FFFFFF">
                        <tspan x="5.128" y="13">B</tspan>
                    </text>
                </g>
            </g>
            <g id="count-with-letter" transform="translate(48.000000, 54.000000)">
                <g id="Group-3">
                    <rect id="Rectangle-7" fill="#000000" x="0" y="0" width="20" height="18"></rect>
                    <g id="Group-34" transform="translate(18.000000, 0.000000)">
                        <path d="M57,23.4017629 L57,3 C57,1.34314575 55.6568542,3.66629817e-15 54,-4.4408921e-16 L54,0 L3,0 L3,-4.4408921e-16 C1.34314575,-1.39730022e-16 -6.46995335e-16,1.34314575 -4.4408921e-16,3 L0,3 L-4.4408921e-16,51 C3.43777239e-15,52.6568542 1.34314575,54 3,54 L3,54 L54,54 C55.6568542,54 57,52.6568542 57,51 L57,51 L57,29.6753855 L72.6152344,26.5385742 L57,23.4017629 Z" id="Combined-Shape" fill="#F5E900"></path>
                        <text id="CHAR" font-family="HelveticaNeue-Medium, Helvetica Neue" font-size="10" font-weight="400" line-spacing="13" letter-spacing="0.75" fill="#000000">
                            <tspan x="12.925" y="48">CHAR</tspan>
                        </text>
                        <text id="170" font-family="HelveticaNeue-CondensedBold, Helvetica Neue" font-size="13" font-style="condensed" font-weight="bold" line-spacing="13" letter-spacing="0.959999979" fill="#000000">
                            <tspan x="21" y="34">40</tspan>
                        </text>
                        <text id="HEADER" font-family="HelveticaNeue-Medium, Helvetica Neue" font-size="10" font-weight="400" line-spacing="13" letter-spacing="0.409090906" fill="#000000">
                            <tspan x="7.39772728" y="15">HEADER</tspan>
                        </text>
                    </g>
                    <text id="A" font-family="HelveticaNeue-Bold, Helvetica Neue" font-size="11" font-weight="bold" fill="#FFFFFF">
                        <tspan x="5.2325" y="13">A</tspan>
                    </text>
                </g>
            </g>
            <g id="count-with-letter" transform="translate(101.000000, 342.000000)">
                <g id="Group-3">
                    <rect id="Rectangle-7" fill="#000000" x="0" y="0" width="20" height="18"></rect>
                    <g id="Group-34" transform="translate(18.000000, 0.000000)">
                        <path d="M57,23.4017629 L57,3 C57,1.34314575 55.6568542,3.66629817e-15 54,-4.4408921e-16 L54,0 L3,0 L3,-4.4408921e-16 C1.34314575,-1.39730022e-16 -6.46995335e-16,1.34314575 -4.4408921e-16,3 L0,3 L-4.4408921e-16,51 C3.43777239e-15,52.6568542 1.34314575,54 3,54 L3,54 L54,54 C55.6568542,54 57,52.6568542 57,51 L57,51 L57,29.6753855 L72.6152344,26.5385742 L57,23.4017629 Z" id="Combined-Shape" fill="#F5E900"></path>
                        <text id="CHAR" font-family="HelveticaNeue-Medium, Helvetica Neue" font-size="10" font-weight="400" line-spacing="13" letter-spacing="0.75" fill="#000000">
                            <tspan x="12.925" y="48">CHAR</tspan>
                        </text>
                        <text id="170" font-family="HelveticaNeue-CondensedBold, Helvetica Neue" font-size="13" font-style="condensed" font-weight="bold" line-spacing="13" letter-spacing="0.959999979" fill="#000000">
                            <tspan x="21" y="34">90</tspan>
                        </text>
                        <text id="HEADER" font-family="HelveticaNeue-Medium, Helvetica Neue" font-size="10" font-weight="400" line-spacing="13" letter-spacing="0.409090906" fill="#000000">
                            <tspan x="12.9772727" y="15">DESC.</tspan>
                        </text>
                    </g>
                    <text id="A" font-family="HelveticaNeue-Bold, Helvetica Neue" font-size="11" font-weight="bold" fill="#FFFFFF">
                        <tspan x="4.9245" y="13">C</tspan>
                    </text>
                </g>
            </g>
        </g>
    </g>
</svg>