<?xml version="1.0" encoding="UTF-8"?>
<svg width="1283px" height="742px" viewBox="0 0 1283 742" version="1.1" xmlns="http://www.w3.org/2000/svg" xmlns:xlink="http://www.w3.org/1999/xlink">
    <!-- Generator: Sketch 44.1 (41455) - http://www.bohemiancoding.com/sketch -->
    <title>featured-news-story</title>
    <desc>Created with Sketch.</desc>
    <defs></defs>
    <g id="Pattern-Library" stroke="none" stroke-width="1" fill="none" fill-rule="evenodd">
        <g id="featured-news-story">
            <rect id="Top-Gray" fill="#4A4A4A" x="2" y="0" width="1280" height="741"></rect>
            <path d="M1282.5,2.01785714 L0.5,740.982143" id="Line" stroke="#FFFFFF" opacity="0.229999989" stroke-linecap="square"></path>
            <path d="M0.5,2.12899092 L1282.5,740.982296" id="Line" stroke="#FFFFFF" opacity="0.229999989" stroke-linecap="square"></path>
            <text id="Featured-news-item-o" font-family="HelveticaNeue-Bold, Helvetica Neue" font-size="43" font-weight="bold" line-spacing="75" letter-spacing="0.716667056" fill="#4990E2">
                <tspan x="130" y="524">Featured news item or event ipsum dolor</tspan>
                <tspan x="130" y="599">sit amet consecteteur adipsiging</tspan>
            </text>
            <text id="OCT-15,-2017" font-family="HelveticaNeue-Bold, Helvetica Neue" font-size="15" font-weight="bold" letter-spacing="0.250000179" fill="#FFFFFF">
                <tspan x="130" y="459">OCT 15, 2017</tspan>
            </text>
            <text id="By-Lorem-Ipsumdolors" font-family="HelveticaNeue, Helvetica Neue" font-size="15" font-weight="normal" letter-spacing="0.250000179" fill="#FFFFFF">
                <tspan x="249" y="459">By Lorem Ipsumdolorsit</tspan>
            </text>
            <g id="count-with-letter" transform="translate(41.000000, 494.000000)">
                <g id="Group-3">
                    <rect id="Rectangle-7" fill="#000000" x="0" y="0" width="20" height="18"></rect>
                    <g id="Group-34" transform="translate(18.000000, 0.000000)">
                        <path d="M57,23.4017629 L57,3 C57,1.34314575 55.6568542,3.66629817e-15 54,-4.4408921e-16 L54,0 L3,0 L3,-4.4408921e-16 C1.34314575,-1.39730022e-16 -6.46995335e-16,1.34314575 -4.4408921e-16,3 L0,3 L-4.4408921e-16,51 C3.43777239e-15,52.6568542 1.34314575,54 3,54 L3,54 L54,54 C55.6568542,54 57,52.6568542 57,51 L57,51 L57,29.6753855 L72.6152344,26.5385742 L57,23.4017629 Z" id="Combined-Shape" fill="#F5E900"></path>
                        <text id="CHAR" font-family="HelveticaNeue-Medium, Helvetica Neue" font-size="10" font-weight="400" line-spacing="13" letter-spacing="0.75" fill="#000000">
                            <tspan x="12.925" y="48">CHAR</tspan>
                        </text>
                        <text id="170" font-family="HelveticaNeue-CondensedBold, Helvetica Neue" font-size="13" font-style="condensed" font-weight="bold" line-spacing="13" letter-spacing="0.959999979" fill="#000000">
                            <tspan x="17.5" y="34">120</tspan>
                        </text>
                        <text id="HEADER" font-family="HelveticaNeue-Medium, Helvetica Neue" font-size="10" font-weight="400" line-spacing="13" letter-spacing="0.409090906" fill="#000000">
                            <tspan x="14.6372727" y="15">TITLE</tspan>
                        </text>
                    </g>
                    <text id="A" font-family="HelveticaNeue-Bold, Helvetica Neue" font-size="11" font-weight="bold" fill="#FFFFFF">
                        <tspan x="5.2325" y="13">A</tspan>
                    </text>
                </g>
            </g>
        </g>
    </g>
</svg>