<?xml version="1.0" encoding="utf-8"?>
<!-- Generator: Adobe Illustrator 19.2.1, SVG Export Plug-In . SVG Version: 6.00 Build 0)  -->
<svg version="1.1" id="Layer_1" xmlns="http://www.w3.org/2000/svg" xmlns:xlink="http://www.w3.org/1999/xlink" x="0px" y="0px"
	 viewBox="0 0 1280 574" style="enable-background:new 0 0 1280 574;" xml:space="preserve">
<style type="text/css">
	.st0{fill:#4A4A4A;}
	.st1{fill:#FFFFFF;}
	.st2{font-family:'HelveticaNeue-Bold';}
	.st3{font-size:43px;}
	.st4{fill:#4990E2;}
	.st5{fill:none;stroke:#4990E2;stroke-width:3;stroke-linecap:square;}
	.st6{fill:#F5E900;}
	.st7{font-family:'HelveticaNeue-Light';}
	.st8{font-size:11px;}
	.st9{letter-spacing:1;}
	.st10{font-size:13px;}
	.st11{font-family:'HelveticaNeue-Medium';}
	.st12{font-size:10px;}
</style>
<title>herowithjump</title>
<desc>Created with Sketch.</desc>
<g id="Pattern-Library">
	<g id="herowithjump" transform="translate(0.000000, 5.000000)">
		<g id="Header-Block-w_x2F_Linked-Statement">
			<g transform="translate(0.000000, -5.000000)">
				<rect id="Rectangle" class="st0" width="1280" height="574"/>
				<text transform="matrix(1 0 0 1 124 215)" class="st1 st2 st3">Research/impact statement cursus magna, vel </text>
				<text transform="matrix(1 0 0 1 124 290)" class="st4 st2 st3">Molecular design</text>
				<text transform="matrix(1 0 0 1 488.0667 290)" class="st1 st2 st3">. Lorem Vivamus sagittis </text>
				<text transform="matrix(1 0 0 1 124 365)" class="st4 st2 st3">Cellular design</text>
				<text transform="matrix(1 0 0 1 452.8511 365)" class="st1 st2 st3">set </text>
				<text transform="matrix(1 0 0 1 530.7513 365)" class="st4 st2 st3">Tissue design</text>
				<text transform="matrix(1 0 0 1 835.1641 365)" class="st1 st2 st3">faucibus dolor </text>
				<text transform="matrix(1 0 0 1 124 440)" class="st1 st2 st3">lorem ipsum dolor </text>
				<text transform="matrix(1 0 0 1 521.277 440)" class="st4 st2 st3">Microbic design</text>
				<path id="Line" class="st5" d="M125,307h365"/>
				<path id="Line_1_" class="st5" d="M530,381h295"/>
				<path id="Line-Copy-3" class="st5" d="M522,456h336"/>
				<path id="Line-Copy-2" class="st5" d="M124,381h318"/>
			</g>
		</g>
		<g id="Count" transform="translate(42.000000, 184.000000)">
			<g id="Group-34">
				<path id="Combined-Shape" class="st6" d="M57,23.4V3c0-1.7-1.3-3-3-3l0,0H3l0,0C1.3,0,0,1.3,0,3l0,0v48c0,1.7,1.3,3,3,3l0,0h51
					c1.7,0,3-1.3,3-3l0,0V29.7l15.6-3.1L57,23.4z"/>
				<text transform="matrix(1 0 0 1 12 48)" class="st7 st8 st9">CHAR</text>
				<text transform="matrix(1 0 0 1 17 34)" class="st2 st10 st9">170</text>
				<text transform="matrix(1 0 0 1 7.3977 15)" class="st11 st12">HEADER</text>
			</g>
		</g>
	</g>
</g>
</svg>
