<?xml version="1.0" encoding="UTF-8"?>
<svg width="1280px" height="574px" viewBox="0 0 1280 574" version="1.1" xmlns="http://www.w3.org/2000/svg" xmlns:xlink="http://www.w3.org/1999/xlink">
    <!-- Generator: Sketch 44.1 (41455) - http://www.bohemiancoding.com/sketch -->
    <title>herowithjump</title>
    <desc>Created with Sketch.</desc>
    <defs></defs>
    <g id="Pattern-Library" stroke="none" stroke-width="1" fill="none" fill-rule="evenodd">
        <g id="herowithjump" transform="translate(0.000000, 5.000000)">
            <g id="Header-Block-w/Linked-Statement">
                <g transform="translate(0.000000, -5.000000)">
                    <rect id="Rectangle" fill="#4A4A4A" x="0" y="0" width="1280" height="574"></rect>
                    <text id="Research/impact-stat" font-family="HelveticaNeue-Bold, Helvetica Neue" font-size="43" font-weight="bold" line-spacing="75" letter-spacing="0.716667056">
                        <tspan x="124" y="215" fill="#FFFFFF">Research/impact statement cursus magna, vel </tspan>
                        <tspan x="124" y="290" fill="#4990E2">Molecular design</tspan>
                        <tspan x="488.066673" y="290" fill="#FFFFFF">. Lorem Vivamus sagittis </tspan>
                        <tspan x="124" y="365" fill="#4990E2">Cellular design</tspan>
                        <tspan x="440.351006" y="365" fill="#FFFFFF"> set </tspan>
                        <tspan x="530.751341" y="365" fill="#4990E2">Tissue design</tspan>
                        <tspan x="822.664013" y="365" fill="#FFFFFF"> faucibus dolor </tspan>
                        <tspan x="124" y="440" fill="#FFFFFF">lorem ipsum dolor </tspan>
                        <tspan x="521.277007" y="440" fill="#4990E2">Microbic design</tspan>
                    </text>
                    <path d="M125,317 L490,317" id="Line" stroke="#4990E2" stroke-width="3" stroke-linecap="square"></path>
                    <path d="M530,391 L825,391" id="Line" stroke="#4990E2" stroke-width="3" stroke-linecap="square"></path>
                    <path d="M522,466 L858,466" id="Line-Copy-3" stroke="#4990E2" stroke-width="3" stroke-linecap="square"></path>
                    <path d="M124,391 L442,391" id="Line-Copy-2" stroke="#4990E2" stroke-width="3" stroke-linecap="square"></path>
                </g>
            </g>
            <g id="count-with-letter" transform="translate(29.000000, 187.000000)">
                <g id="Group-3">
                    <rect id="Rectangle-7" fill="#000000" x="0" y="0" width="20" height="18"></rect>
                    <g id="Group-34" transform="translate(18.000000, 0.000000)">
                        <path d="M57,23.4017629 L57,3 C57,1.34314575 55.6568542,3.66629817e-15 54,-4.4408921e-16 L54,0 L3,0 L3,-4.4408921e-16 C1.34314575,-1.39730022e-16 -6.46995335e-16,1.34314575 -4.4408921e-16,3 L0,3 L-4.4408921e-16,51 C3.43777239e-15,52.6568542 1.34314575,54 3,54 L3,54 L54,54 C55.6568542,54 57,52.6568542 57,51 L57,51 L57,29.6753855 L72.6152344,26.5385742 L57,23.4017629 Z" id="Combined-Shape" fill="#F5E900"></path>
                        <text id="CHAR" font-family="HelveticaNeue-Medium, Helvetica Neue" font-size="10" font-weight="400" line-spacing="13" letter-spacing="0.75" fill="#000000">
                            <tspan x="12.925" y="48">CHAR</tspan>
                        </text>
                        <text id="170" font-family="HelveticaNeue-CondensedBold, Helvetica Neue" font-size="13" font-style="condensed" font-weight="bold" line-spacing="13" letter-spacing="0.959999979" fill="#000000">
                            <tspan x="17.5" y="34">170</tspan>
                        </text>
                        <text id="HEADER" font-family="HelveticaNeue-Medium, Helvetica Neue" font-size="10" font-weight="400" line-spacing="13" letter-spacing="0.409090906" fill="#000000">
                            <tspan x="7.39772728" y="15">HEADER</tspan>
                        </text>
                    </g>
                    <text id="A" font-family="HelveticaNeue-Bold, Helvetica Neue" font-size="11" font-weight="bold" fill="#FFFFFF">
                        <tspan x="5.2325" y="13">A</tspan>
                    </text>
                </g>
            </g>
        </g>
    </g>
</svg>