<?xml version="1.0" encoding="UTF-8"?>
<svg width="1280px" height="576px" viewBox="0 0 1280 576" version="1.1" xmlns="http://www.w3.org/2000/svg" xmlns:xlink="http://www.w3.org/1999/xlink">
    <!-- Generator: Sketch 44.1 (41455) - http://www.bohemiancoding.com/sketch -->
    <title>heroselect</title>
    <desc>Created with Sketch.</desc>
    <defs></defs>
    <g id="Pattern-Library" stroke="none" stroke-width="1" fill="none" fill-rule="evenodd">
        <g id="heroselect">
            <g id="Header-Block-with-Jump-Nav">
                <g>
                    <rect id="Top-Gray" fill="#4A4A4A" x="0" y="0" width="1280" height="576"></rect>
                    <text id="Ipsum-dolor-sit-amet" font-family="HelveticaNeue-Bold, Helvetica Neue" font-size="43" font-weight="bold" line-spacing="75" letter-spacing="0.716667056" fill="#FFFFFF">
                        <tspan x="123" y="211">Ipsum dolor sit amet intro vel consecteteur. </tspan>
                        <tspan x="123" y="286">Lorem Vivamus sagittis adipising set lorem </tspan>
                        <tspan x="123" y="361">ipsum faucibus dolor lorem ipsum dolor sit</tspan>
                        <tspan x="123" y="436">consecteteur sit amet.</tspan>
                    </text>
                    <g id="Group-13" transform="translate(124.000000, 55.000000)">
                        <text id="Tissue-design" font-family="HelveticaNeue-Bold, Helvetica Neue" font-size="16" font-weight="bold" line-spacing="16" letter-spacing="0.266666859" fill="#4990E2">
                            <tspan x="0" y="45">Tissue design</tspan>
                        </text>
                        <path d="M0,73 L140,73" id="Line" stroke="#4990E2" stroke-width="3" stroke-linecap="square"></path>
                        <text id="" font-family="FontAwesome" font-size="26" font-weight="normal" fill="#4990E2">
                            <tspan x="123.285714" y="47"></tspan>
                        </text>
                    </g>
                </g>
            </g>
            <g id="Count" transform="translate(42.000000, 189.000000)">
                <g id="Group-34">
                    <path d="M57,23.4017629 L57,3 C57,1.34314575 55.6568542,3.66629817e-15 54,-4.4408921e-16 L54,0 L3,0 L3,-4.4408921e-16 C1.34314575,-1.39730022e-16 -6.46995335e-16,1.34314575 -4.4408921e-16,3 L0,3 L-4.4408921e-16,51 C3.43777239e-15,52.6568542 1.34314575,54 3,54 L3,54 L54,54 C55.6568542,54 57,52.6568542 57,51 L57,51 L57,29.6753855 L72.6152344,26.5385742 L57,23.4017629 Z" id="Combined-Shape" fill="#F5E900"></path>
                    <text id="CHAR" font-family="HelveticaNeue-Light, Helvetica Neue" font-size="11" font-weight="300" line-spacing="13" letter-spacing="1.15499985" fill="#000000">
                        <tspan x="12" y="48">CHAR</tspan>
                    </text>
                    <text id="170" font-family="HelveticaNeue-CondensedBold, Helvetica Neue" font-size="13" font-style="condensed" font-weight="bold" line-spacing="13" letter-spacing="1.36499989" fill="#000000">
                        <tspan x="17" y="34">170</tspan>
                    </text>
                    <text id="HEADER" font-family="HelveticaNeue-Medium, Helvetica Neue" font-size="10" font-weight="400" line-spacing="13" letter-spacing="0.409090906" fill="#000000">
                        <tspan x="7.39772728" y="15">HEADER</tspan>
                    </text>
                </g>
            </g>
            <g id="Count" transform="translate(42.000000, 73.000000)">
                <g id="Group-34">
                    <path d="M57,23.4017629 L57,3 C57,1.34314575 55.6568542,3.66629817e-15 54,-4.4408921e-16 L54,0 L3,0 L3,-4.4408921e-16 C1.34314575,-1.39730022e-16 -6.46995335e-16,1.34314575 -4.4408921e-16,3 L0,3 L-4.4408921e-16,51 C3.43777239e-15,52.6568542 1.34314575,54 3,54 L3,54 L54,54 C55.6568542,54 57,52.6568542 57,51 L57,51 L57,29.6753855 L72.6152344,26.5385742 L57,23.4017629 Z" id="Combined-Shape" fill="#F5E900"></path>
                    <text id="CHAR" font-family="HelveticaNeue-Light, Helvetica Neue" font-size="11" font-weight="300" line-spacing="13" letter-spacing="1.15499985" fill="#000000">
                        <tspan x="12" y="48">CHAR</tspan>
                    </text>
                    <text id="170" font-family="HelveticaNeue-CondensedBold, Helvetica Neue" font-size="13" font-style="condensed" font-weight="bold" line-spacing="13" letter-spacing="1.36499989" fill="#000000">
                        <tspan x="20.5" y="34">24</tspan>
                    </text>
                    <text id="HEADER" font-family="HelveticaNeue-Medium, Helvetica Neue" font-size="10" font-weight="400" line-spacing="13" letter-spacing="0.409090906" fill="#000000">
                        <tspan x="8.78772728" y="15">SELECT</tspan>
                    </text>
                </g>
            </g>
        </g>
    </g>
</svg>