<?xml version="1.0" encoding="UTF-8"?>
<svg width="1280px" height="373px" viewBox="0 0 1280 373" version="1.1" xmlns="http://www.w3.org/2000/svg" xmlns:xlink="http://www.w3.org/1999/xlink">
    <!-- Generator: Sketch 44.1 (41455) - http://www.bohemiancoding.com/sketch -->
    <title>news-block</title>
    <desc>Created with Sketch.</desc>
    <defs></defs>
    <g id="Pattern-Library" stroke="none" stroke-width="1" fill="none" fill-rule="evenodd">
        <g id="news-block">
            <polygon id="Rectangle" fill="#4A4A4A" points="0 0 1280 0 1280 373 0 373"></polygon>
            <text id="Related-news" font-family="HelveticaNeue-Bold, Helvetica Neue" font-size="41" font-weight="bold" line-spacing="28" fill="#FFFFFF">
                <tspan x="128" y="111">Related news</tspan>
            </text>
            <g id="Group" transform="translate(128.000000, 151.000000)" font-weight="bold" font-family="HelveticaNeue-Bold, Helvetica Neue">
                <text id="OCT-10,-2017" font-size="14" letter-spacing="1.5" fill="#FFFFFF">
                    <tspan x="0" y="14">OCT 10, 2017</tspan>
                </text>
                <text id="Cursus-porttitor-vol" font-size="20" line-spacing="24" fill="#4990E2">
                    <tspan x="0" y="50">Cursus porttitor volutpat </tspan>
                    <tspan x="0" y="74">aenean vel tristique </tspan>
                    <tspan x="0" y="98">venenatis ut vitae leo </tspan>
                    <tspan x="0" y="122">sapien enim tellus quam </tspan>
                    <tspan x="0" y="146">interdum aliquam</tspan>
                </text>
            </g>
            <g id="Group" transform="translate(477.000000, 151.000000)" font-weight="bold" font-family="HelveticaNeue-Bold, Helvetica Neue">
                <text id="OCT-10,-2017" font-size="14" letter-spacing="1.5" fill="#FFFFFF">
                    <tspan x="0" y="14">OCT 10, 2017</tspan>
                </text>
                <text id="Cursus-porttitor-vol" font-size="20" line-spacing="24" fill="#4990E2">
                    <tspan x="0" y="50">Cursus porttitor volutpat </tspan>
                    <tspan x="0" y="74">aenean vel tristique </tspan>
                    <tspan x="0" y="98">venenatis ut vitae leo </tspan>
                    <tspan x="0" y="122">sapien enim tellus quam </tspan>
                    <tspan x="0" y="146">interdum aliquam</tspan>
                </text>
            </g>
            <g id="Group" transform="translate(826.000000, 151.000000)" font-weight="bold" font-family="HelveticaNeue-Bold, Helvetica Neue">
                <text id="OCT-10,-2017" font-size="14" letter-spacing="1.5" fill="#FFFFFF">
                    <tspan x="0" y="14">OCT 10, 2017</tspan>
                </text>
                <text id="Cursus-porttitor-vol" font-size="20" line-spacing="24" fill="#4990E2">
                    <tspan x="0" y="50">Cursus porttitor volutpat </tspan>
                    <tspan x="0" y="74">aenean vel tristique </tspan>
                    <tspan x="0" y="98">venenatis ut vitae leo </tspan>
                    <tspan x="0" y="122">sapien enim tellus quam </tspan>
                    <tspan x="0" y="146">interdum aliquam</tspan>
                </text>
            </g>
            <g id="count-with-letter" transform="translate(34.000000, 187.000000)">
                <g id="Group-3">
                    <rect id="Rectangle-7" fill="#000000" x="0" y="0" width="20" height="18"></rect>
                    <g id="Group-34" transform="translate(18.000000, 0.000000)">
                        <path d="M57,23.4017629 L57,3 C57,1.34314575 55.6568542,3.66629817e-15 54,-4.4408921e-16 L54,0 L3,0 L3,-4.4408921e-16 C1.34314575,-1.39730022e-16 -6.46995335e-16,1.34314575 -4.4408921e-16,3 L0,3 L-4.4408921e-16,51 C3.43777239e-15,52.6568542 1.34314575,54 3,54 L3,54 L54,54 C55.6568542,54 57,52.6568542 57,51 L57,51 L57,29.6753855 L72.6152344,26.5385742 L57,23.4017629 Z" id="Combined-Shape" fill="#F5E900"></path>
                        <text id="CHAR" font-family="HelveticaNeue-Medium, Helvetica Neue" font-size="10" font-weight="400" line-spacing="13" letter-spacing="0.75" fill="#000000">
                            <tspan x="12.925" y="48">CHAR</tspan>
                        </text>
                        <text id="170" font-family="HelveticaNeue-CondensedBold, Helvetica Neue" font-size="13" font-style="condensed" font-weight="bold" line-spacing="13" letter-spacing="0.959999979" fill="#000000">
                            <tspan x="17.5" y="34">120</tspan>
                        </text>
                        <text id="HEADER" font-family="HelveticaNeue-Medium, Helvetica Neue" font-size="10" font-weight="400" line-spacing="13" letter-spacing="0.409090906" fill="#000000">
                            <tspan x="18.1572727" y="15">Title</tspan>
                        </text>
                    </g>
                    <text id="A" font-family="HelveticaNeue-Bold, Helvetica Neue" font-size="11" font-weight="bold" fill="#FFFFFF">
                        <tspan x="5.128" y="13">B</tspan>
                    </text>
                </g>
            </g>
            <g id="count-with-letter" transform="translate(34.000000, 59.000000)">
                <g id="Group-3">
                    <rect id="Rectangle-7" fill="#000000" x="0" y="0" width="20" height="18"></rect>
                    <g id="Group-34" transform="translate(18.000000, 0.000000)">
                        <path d="M57,23.4017629 L57,3 C57,1.34314575 55.6568542,3.66629817e-15 54,-4.4408921e-16 L54,0 L3,0 L3,-4.4408921e-16 C1.34314575,-1.39730022e-16 -6.46995335e-16,1.34314575 -4.4408921e-16,3 L0,3 L-4.4408921e-16,51 C3.43777239e-15,52.6568542 1.34314575,54 3,54 L3,54 L54,54 C55.6568542,54 57,52.6568542 57,51 L57,51 L57,29.6753855 L72.6152344,26.5385742 L57,23.4017629 Z" id="Combined-Shape" fill="#F5E900"></path>
                        <text id="CHAR" font-family="HelveticaNeue-Medium, Helvetica Neue" font-size="10" font-weight="400" line-spacing="13" letter-spacing="0.75" fill="#000000">
                            <tspan x="12.925" y="48">CHAR</tspan>
                        </text>
                        <text id="170" font-family="HelveticaNeue-CondensedBold, Helvetica Neue" font-size="13" font-style="condensed" font-weight="bold" line-spacing="13" letter-spacing="0.959999979" fill="#000000">
                            <tspan x="21" y="34">40</tspan>
                        </text>
                        <text id="HEADER" font-family="HelveticaNeue-Medium, Helvetica Neue" font-size="10" font-weight="400" line-spacing="13" letter-spacing="0.409090906" fill="#000000">
                            <tspan x="7.39772728" y="15">HEADER</tspan>
                        </text>
                    </g>
                    <text id="A" font-family="HelveticaNeue-Bold, Helvetica Neue" font-size="11" font-weight="bold" fill="#FFFFFF">
                        <tspan x="5.2325" y="13">A</tspan>
                    </text>
                </g>
            </g>
        </g>
    </g>
</svg>