<?xml version="1.0" encoding="UTF-8"?>
<svg width="1283px" height="367px" viewBox="0 0 1283 367" version="1.1" xmlns="http://www.w3.org/2000/svg" xmlns:xlink="http://www.w3.org/1999/xlink">
    <!-- Generator: Sketch 44.1 (41455) - http://www.bohemiancoding.com/sketch -->
    <title>photo-divider</title>
    <desc>Created with Sketch.</desc>
    <defs></defs>
    <g id="Pattern-Library" stroke="none" stroke-width="1" fill="none" fill-rule="evenodd">
        <g id="photo-divider">
            <rect id="Rectangle" fill="#4A4A4A" x="0" y="0" width="1280" height="367"></rect>
            <path d="M1282.5,0.5 L0.5,363.5" id="Line" stroke="#FFFFFF" stroke-linecap="square"></path>
            <path d="M1282.5,0.5 L0.5,363.5" id="Line" stroke="#FFFFFF" stroke-linecap="square" transform="translate(641.500000, 182.000000) scale(-1, 1) translate(-641.500000, -182.000000) "></path>
            <g id="Group-5" transform="translate(615.000000, 296.000000)" font-size="20" font-family="HelveticaNeue-Bold, Helvetica Neue" line-spacing="34" fill="#FFFFFF" font-weight="bold">
                <text id="1-of-5">
                    <tspan x="0" y="20">1 of 5</tspan>
                </text>
            </g>
            <path d="M533.123412,314.5 L533.103926,314.519486 L546.603926,328.019486 L549.174148,325.449264 L538.224884,314.5 L549.174148,303.550736 L546.603926,300.980514 L533.103926,314.480514 L533.123412,314.5 Z M745.775116,314.5 L734.825852,325.449264 L737.396074,328.019486 L750.896074,314.519486 L750.876588,314.5 L750.896074,314.480514 L737.396074,300.980514 L734.825852,303.550736 L745.775116,314.5 Z" id="Combined-Shape" fill="#4990E2"></path>
        </g>
    </g>
</svg>