<?xml version="1.0" encoding="UTF-8"?>
<svg width="1280px" height="394px" viewBox="0 0 1280 394" version="1.1" xmlns="http://www.w3.org/2000/svg" xmlns:xlink="http://www.w3.org/1999/xlink">
    <!-- Generator: Sketch 44.1 (41455) - http://www.bohemiancoding.com/sketch -->
    <title>product-application-card</title>
    <desc>Created with Sketch.</desc>
    <defs></defs>
    <g id="Pattern-Library" stroke="none" stroke-width="1" fill="none" fill-rule="evenodd">
        <g id="product-application-card">
            <rect id="Rectangle-10" fill="#FFFFFF" x="0" y="0" width="1280" height="394"></rect>
            <g id="Group" transform="translate(83.000000, 47.000000)">
                <text id="The-Chen-Lab" font-family="HelveticaNeue, Helvetica Neue" font-size="16" font-weight="normal" line-spacing="34" fill="#4990E2">
                    <tspan x="28" y="97">The Chen Lab</tspan>
                </text>
                <rect id="Rectangle-2" stroke="#979797" x="0" y="0" width="500" height="300"></rect>
                <text id="View-Product-/-appli" font-family="HelveticaNeue-Bold, Helvetica Neue" font-size="16" font-weight="bold" line-spacing="34" fill="#4990E2">
                    <tspan x="26" y="253">View Product / application page</tspan>
                </text>
                <path d="M289,256 L343,256" id="Line-Copy-10" stroke="#4990E2" fill="#4990E2" stroke-linecap="square"></path>
                <path id="Line-Copy-10-decoration-1" d="M343,256 L332.2,253 L332.2,259 L343,256 Z" stroke="#4990E2" fill="#4990E2" stroke-linecap="square"></path>
                <text id="Product-/-Applicatio" font-family="HelveticaNeue, Helvetica Neue" font-size="16" font-weight="normal" line-spacing="25" fill="#000000">
                    <tspan x="26" y="136">Product / Application teaser ipsum dolor sit amet, </tspan>
                    <tspan x="26" y="161">consectetuer adipiscing elit. Aenean commodo ligula eget </tspan>
                    <tspan x="26" y="186">dolor. Aenean massa. Cum sociis natoque penatibus et </tspan>
                    <tspan x="26" y="211">magnis dis parturient montes, nascetur ridiculus mus. </tspan>
                </text>
                <text id="Product-/Application" font-family="HelveticaNeue-Bold, Helvetica Neue" font-size="30" font-weight="bold" line-spacing="45" letter-spacing="0.529999971" fill="#000000">
                    <tspan x="28" y="56">Product /Application Nam</tspan>
                    <tspan x="410.079999" y="56">e</tspan>
                </text>
            </g>
            <g id="count-with-letter" transform="translate(19.000000, 74.000000)">
                <g id="Group-3">
                    <rect id="Rectangle-7" fill="#000000" x="0" y="0" width="20" height="18"></rect>
                    <g id="Group-34" transform="translate(18.000000, 0.000000)">
                        <path d="M57,23.4017629 L57,3 C57,1.34314575 55.6568542,3.66629817e-15 54,-4.4408921e-16 L54,0 L3,0 L3,-4.4408921e-16 C1.34314575,-1.39730022e-16 -6.46995335e-16,1.34314575 -4.4408921e-16,3 L0,3 L-4.4408921e-16,51 C3.43777239e-15,52.6568542 1.34314575,54 3,54 L3,54 L54,54 C55.6568542,54 57,52.6568542 57,51 L57,51 L57,29.6753855 L72.6152344,26.5385742 L57,23.4017629 Z" id="Combined-Shape" fill="#F5E900"></path>
                        <text id="CHAR" font-family="HelveticaNeue-Medium, Helvetica Neue" font-size="10" font-weight="400" line-spacing="13" letter-spacing="0.75" fill="#000000">
                            <tspan x="12.925" y="48">CHAR</tspan>
                        </text>
                        <text id="170" font-family="HelveticaNeue-CondensedBold, Helvetica Neue" font-size="13" font-style="condensed" font-weight="bold" line-spacing="13" letter-spacing="0.959999979" fill="#000000">
                            <tspan x="21" y="34">56</tspan>
                        </text>
                        <text id="HEADER" font-family="HelveticaNeue-Medium, Helvetica Neue" font-size="10" font-weight="400" line-spacing="13" letter-spacing="0.409090906" fill="#000000">
                            <tspan x="14.6372727" y="15">TITLE</tspan>
                        </text>
                    </g>
                    <text id="A" font-family="HelveticaNeue-Bold, Helvetica Neue" font-size="11" font-weight="bold" fill="#FFFFFF">
                        <tspan x="4.9245" y="13">C</tspan>
                    </text>
                </g>
            </g>
            <g id="count-with-letter" transform="translate(19.000000, 185.000000)">
                <g id="Group-3">
                    <rect id="Rectangle-7" fill="#000000" x="0" y="0" width="20" height="18"></rect>
                    <g id="Group-34" transform="translate(18.000000, 0.000000)">
                        <path d="M57,23.4017629 L57,3 C57,1.34314575 55.6568542,3.66629817e-15 54,-4.4408921e-16 L54,0 L3,0 L3,-4.4408921e-16 C1.34314575,-1.39730022e-16 -6.46995335e-16,1.34314575 -4.4408921e-16,3 L0,3 L-4.4408921e-16,51 C3.43777239e-15,52.6568542 1.34314575,54 3,54 L3,54 L54,54 C55.6568542,54 57,52.6568542 57,51 L57,51 L57,29.6753855 L72.6152344,26.5385742 L57,23.4017629 Z" id="Combined-Shape" fill="#F5E900"></path>
                        <text id="CHAR" font-family="HelveticaNeue-Medium, Helvetica Neue" font-size="10" font-weight="400" line-spacing="13" letter-spacing="0.75" fill="#000000">
                            <tspan x="12.925" y="48">CHAR</tspan>
                        </text>
                        <text id="170" font-family="HelveticaNeue-CondensedBold, Helvetica Neue" font-size="13" font-style="condensed" font-weight="bold" line-spacing="13" letter-spacing="0.959999979" fill="#000000">
                            <tspan x="17.5" y="34">212</tspan>
                        </text>
                        <text id="HEADER" font-family="HelveticaNeue-Medium, Helvetica Neue" font-size="10" font-weight="400" line-spacing="13" letter-spacing="0.409090906" fill="#000000">
                            <tspan x="10.9127273" y="15">DETAIL</tspan>
                        </text>
                    </g>
                    <text id="A" font-family="HelveticaNeue-Bold, Helvetica Neue" font-size="11" font-weight="bold" fill="#FFFFFF">
                        <tspan x="4.9245" y="13">D</tspan>
                    </text>
                </g>
            </g>
            <g id="count-with-letter" transform="translate(19.000000, 278.000000)">
                <g id="Group-3">
                    <rect id="Rectangle-7" fill="#000000" x="0" y="0" width="20" height="18"></rect>
                    <g id="Group-34" transform="translate(18.000000, 0.000000)">
                        <path d="M57,23.4017629 L57,3 C57,1.34314575 55.6568542,3.66629817e-15 54,-4.4408921e-16 L54,0 L3,0 L3,-4.4408921e-16 C1.34314575,-1.39730022e-16 -6.46995335e-16,1.34314575 -4.4408921e-16,3 L0,3 L-4.4408921e-16,51 C3.43777239e-15,52.6568542 1.34314575,54 3,54 L3,54 L54,54 C55.6568542,54 57,52.6568542 57,51 L57,51 L57,29.6753855 L72.6152344,26.5385742 L57,23.4017629 Z" id="Combined-Shape" fill="#F5E900"></path>
                        <text id="CHAR" font-family="HelveticaNeue-Medium, Helvetica Neue" font-size="10" font-weight="400" line-spacing="13" letter-spacing="0.75" fill="#000000">
                            <tspan x="12.925" y="48">CHAR</tspan>
                        </text>
                        <text id="170" font-family="HelveticaNeue-CondensedBold, Helvetica Neue" font-size="13" font-style="condensed" font-weight="bold" line-spacing="13" letter-spacing="0.959999979" fill="#000000">
                            <tspan x="21" y="34">40</tspan>
                        </text>
                        <text id="HEADER" font-family="HelveticaNeue-Medium, Helvetica Neue" font-size="10" font-weight="400" line-spacing="13" letter-spacing="0.409090906" fill="#000000">
                            <tspan x="16.8868182" y="15">LINK</tspan>
                        </text>
                    </g>
                    <text id="A" font-family="HelveticaNeue-Bold, Helvetica Neue" font-size="11" font-weight="bold" fill="#FFFFFF">
                        <tspan x="5.436" y="13">E</tspan>
                    </text>
                </g>
            </g>
        </g>
    </g>
</svg>