<?xml version="1.0" encoding="UTF-8"?>
<svg width="1280px" height="367px" viewBox="0 0 1280 367" version="1.1" xmlns="http://www.w3.org/2000/svg" xmlns:xlink="http://www.w3.org/1999/xlink">
    <!-- Generator: Sketch 44.1 (41455) - http://www.bohemiancoding.com/sketch -->
    <title>quote</title>
    <desc>Created with Sketch.</desc>
    <defs></defs>
    <g id="Pattern-Library" stroke="none" stroke-width="1" fill="none" fill-rule="evenodd">
        <g id="quote">
            <g id="Group-3" fill="#4A4A4A">
                <rect id="Rectangle" x="0" y="0" width="1280" height="367"></rect>
            </g>
            <text id="Quote-from-an-indust" font-family="HelveticaNeue-Italic, Helvetica Neue" font-size="34" font-style="italic" font-weight="normal" line-spacing="45" fill="#FFFFFF">
                <tspan x="243.982" y="106">Quote from an industry partner lorem ipsum dolor sit </tspan>
                <tspan x="319.819" y="151">amet, consectetuer adipiscing elit. Aenean </tspan>
                <tspan x="260.982" y="196">commodo ligula eget consecteteur sit amet lorem.</tspan>
            </text>
            <text id="Scott-Guthrie,-Execu" font-family="HelveticaNeue, Helvetica Neue" font-size="16" font-weight="normal" line-spacing="28" fill="#FFFFFF">
                <tspan x="416.368" y="276">Scott Guthrie, Executive Vice President, Lorem Ipsum Group</tspan>
            </text>
            <g id="Count" transform="translate(143.000000, 99.000000)">
                <g id="Group-34">
                    <path d="M57,23.4017629 L57,3 C57,1.34314575 55.6568542,3.66629817e-15 54,-4.4408921e-16 L54,0 L3,0 L3,-4.4408921e-16 C1.34314575,-1.39730022e-16 -6.46995335e-16,1.34314575 -4.4408921e-16,3 L0,3 L-4.4408921e-16,51 C3.43777239e-15,52.6568542 1.34314575,54 3,54 L3,54 L54,54 C55.6568542,54 57,52.6568542 57,51 L57,51 L57,29.6753855 L72.6152344,26.5385742 L57,23.4017629 Z" id="Combined-Shape" fill="#F5E900"></path>
                    <text id="CHAR" font-family="HelveticaNeue-Light, Helvetica Neue" font-size="11" font-weight="300" line-spacing="13" letter-spacing="1.15499985" fill="#000000">
                        <tspan x="12" y="48">CHAR</tspan>
                    </text>
                    <text id="170" font-family="HelveticaNeue-CondensedBold, Helvetica Neue" font-size="13" font-style="condensed" font-weight="bold" line-spacing="13" letter-spacing="1.36499989" fill="#000000">
                        <tspan x="17" y="34">300</tspan>
                    </text>
                    <text id="HEADER" font-family="HelveticaNeue-Medium, Helvetica Neue" font-size="10" font-weight="400" line-spacing="13" letter-spacing="0.409090906" fill="#000000">
                        <tspan x="10.6522727" y="15">QUOTE</tspan>
                    </text>
                </g>
            </g>
        </g>
    </g>
</svg>