<?xml version="1.0" encoding="UTF-8"?>
<svg width="1280px" height="696px" viewBox="0 0 1280 696" version="1.1" xmlns="http://www.w3.org/2000/svg" xmlns:xlink="http://www.w3.org/1999/xlink">
    <!-- Generator: Sketch 44.1 (41455) - http://www.bohemiancoding.com/sketch -->
    <title>Group 25</title>
    <desc>Created with Sketch.</desc>
    <defs>
        <rect id="path-1" x="0" y="66" width="690" height="376"></rect>
    </defs>
    <g id="Pattern-Library" stroke="none" stroke-width="1" fill="none" fill-rule="evenodd">
        <g id="Group-25">
            <g id="Group-3">
                <polygon id="Rectangle" fill="#4A4A4A" points="0 0 1280 0 1280 142 0 142"></polygon>
                <rect id="Rectangle-4" fill="#FFFFFF" x="480" y="38" width="690" height="66"></rect>
                <text id="Biomimetic-Biology" font-family="HelveticaNeue-Bold, Helvetica Neue" font-size="24" font-weight="bold" fill="#000000">
                    <tspan x="500" y="80">Biomimetic Biology</tspan>
                </text>
                <path d="M1137.93642,75.917465 C1136.16174,77.6921461 1133.82094,78.6553102 1131.32901,78.6553102 C1128.83657,78.6553102 1126.49577,77.6921461 1124.72109,75.917465 C1122.96434,74.1617398 1122.0022,71.8209437 1122.0022,69.3290128 C1122.0022,66.8365695 1122.96434,64.4957733 1124.73954,62.7205799 C1126.49577,60.9648548 1128.83657,60.002203 1131.32901,60.002203 C1133.82094,60.002203 1136.16174,60.9648548 1137.93642,62.7205799 C1139.69215,64.4957733 1140.65531,66.8365695 1140.65531,69.3290128 C1140.65531,71.8209437 1139.69215,74.1617398 1137.93642,75.917465 M1143.67596,69.3290128 C1143.67596,66.0245402 1142.39208,62.9280701 1140.05128,60.6062298 C1137.72842,58.2838772 1134.63246,57 1131.32901,57 C1128.0435,57 1124.94703,58.2838772 1122.60623,60.6062298 C1120.28388,62.9280701 1119,66.0245402 1119,69.3290128 C1119,72.6324607 1120.28388,75.7284185 1122.60623,78.0512834 C1124.94703,80.3726113 1128.0435,81.6564885 1131.32901,81.6564885 C1134.12321,81.6564885 1136.76628,80.7317486 1138.91803,79.0513346 L1146.86618,87 L1149,84.8661817 L1141.05133,76.9185409 C1142.73175,74.766279 1143.67596,72.1232133 1143.67596,69.3290128" id="Fill-1" fill="#4990E2"></path>
                <text id="88-Results" font-family="HelveticaNeue-Bold, Helvetica Neue" font-size="43" font-weight="bold" line-spacing="75" letter-spacing="0.716667056" fill="#FFFFFF">
                    <tspan x="145" y="82">88 Results</tspan>
                </text>
            </g>
            <g id="Group-3" transform="translate(0.000000, 215.000000)">
                <polygon id="Rectangle" fill="#4A4A4A" points="0 0 1280 0 1280 142 0 142"></polygon>
                <rect id="Rectangle-4" fill="#FFFFFF" x="480" y="38" width="690" height="66"></rect>
                <text id="Biomimetic-Biology" font-family="HelveticaNeue-Bold, Helvetica Neue" font-size="24" font-weight="bold" fill="#000000">
                    <tspan x="500" y="80">Biomimetic Biology</tspan>
                </text>
                <path d="M1137.93642,75.917465 C1136.16174,77.6921461 1133.82094,78.6553102 1131.32901,78.6553102 C1128.83657,78.6553102 1126.49577,77.6921461 1124.72109,75.917465 C1122.96434,74.1617398 1122.0022,71.8209437 1122.0022,69.3290128 C1122.0022,66.8365695 1122.96434,64.4957733 1124.73954,62.7205799 C1126.49577,60.9648548 1128.83657,60.002203 1131.32901,60.002203 C1133.82094,60.002203 1136.16174,60.9648548 1137.93642,62.7205799 C1139.69215,64.4957733 1140.65531,66.8365695 1140.65531,69.3290128 C1140.65531,71.8209437 1139.69215,74.1617398 1137.93642,75.917465 M1143.67596,69.3290128 C1143.67596,66.0245402 1142.39208,62.9280701 1140.05128,60.6062298 C1137.72842,58.2838772 1134.63246,57 1131.32901,57 C1128.0435,57 1124.94703,58.2838772 1122.60623,60.6062298 C1120.28388,62.9280701 1119,66.0245402 1119,69.3290128 C1119,72.6324607 1120.28388,75.7284185 1122.60623,78.0512834 C1124.94703,80.3726113 1128.0435,81.6564885 1131.32901,81.6564885 C1134.12321,81.6564885 1136.76628,80.7317486 1138.91803,79.0513346 L1146.86618,87 L1149,84.8661817 L1141.05133,76.9185409 C1142.73175,74.766279 1143.67596,72.1232133 1143.67596,69.3290128" id="Fill-1" fill="#4990E2"></path>
                <text id="88-Results" font-family="HelveticaNeue-Bold, Helvetica Neue" font-size="43" font-weight="bold" line-spacing="75" letter-spacing="0.716667056" fill="#FFFFFF">
                    <tspan x="145" y="82">88 Results</tspan>
                </text>
                <g transform="translate(480.000000, 38.000000)">
                    <g id="Group">
                        <rect id="Rectangle-4" fill="#FFFFFF" x="0" y="0" width="690" height="66"></rect>
                        <text id="Bio" font-family="HelveticaNeue-Bold, Helvetica Neue" font-size="24" font-weight="bold" fill="#000000">
                            <tspan x="20" y="42">Bio</tspan>
                        </text>
                        <path d="M57.5,16.5 L57.5,46.5665928" id="Line" stroke="#717171" stroke-linecap="square"></path>
                        <path d="M657.936421,37.917465 C656.16174,39.6921461 653.820944,40.6553102 651.329013,40.6553102 C648.836569,40.6553102 646.495773,39.6921461 644.721092,37.917465 C642.964342,36.1617398 642.002203,33.8209437 642.002203,31.3290128 C642.002203,28.8365695 642.964342,26.4957733 644.739536,24.7205799 C646.495773,22.9648548 648.836569,22.002203 651.329013,22.002203 C653.820944,22.002203 656.16174,22.9648548 657.936421,24.7205799 C659.692146,26.4957733 660.65531,28.8365695 660.65531,31.3290128 C660.65531,33.8209437 659.692146,36.1617398 657.936421,37.917465 M663.675957,31.3290128 C663.675957,28.0245402 662.39208,24.9280701 660.051283,22.6062298 C657.728418,20.2838772 654.632461,19 651.329013,19 C648.043496,19 644.947026,20.2838772 642.60623,22.6062298 C640.283877,24.9280701 639,28.0245402 639,31.3290128 C639,34.6324607 640.283877,37.7284185 642.60623,40.0512834 C644.947026,42.3726113 648.043496,43.6564885 651.329013,43.6564885 C654.123213,43.6564885 656.766279,42.7317486 658.918029,41.0513346 L666.866182,49 L669,46.8661817 L661.051335,38.9185409 C662.731749,36.766279 663.675957,34.1232133 663.675957,31.3290128" id="Fill-1" fill="#4990E2"></path>
                    </g>
                    <g id="Rectangle-4" transform="translate(345.000000, 254.000000) scale(1, -1) translate(-345.000000, -254.000000) ">
                        <use fill="#F5F5F5" fill-rule="evenodd" xlink:href="#path-1"></use>
                        <rect stroke="#717171" stroke-width="1" x="-0.5" y="65.5" width="691" height="377"></rect>
                    </g>
                    <text id="Bio-Biologic-Systems" font-family="HelveticaNeue-Bold, Helvetica Neue" font-size="24" font-weight="bold" line-spacing="35" fill="#000000">
                        <tspan x="20" y="99">Bio</tspan>
                        <tspan x="57.752" y="99" font-family="HelveticaNeue, Helvetica Neue" font-weight="normal"></tspan>
                        <tspan x="20" y="134">Bio</tspan>
                        <tspan x="57.752" y="134" font-family="HelveticaNeue, Helvetica Neue" font-weight="normal">logic Systems</tspan>
                        <tspan x="20" y="169">Bio</tspan>
                        <tspan x="57.752" y="169" font-family="HelveticaNeue, Helvetica Neue" font-weight="normal">logic Systems Lorem</tspan>
                        <tspan x="20" y="204">Bio</tspan>
                        <tspan x="57.752" y="204" font-family="HelveticaNeue, Helvetica Neue" font-weight="normal">logic Systems Lorem Ipsum</tspan>
                        <tspan x="20" y="239">Bio</tspan>
                        <tspan x="57.752" y="239" font-family="HelveticaNeue, Helvetica Neue" font-weight="normal">logy</tspan>
                        <tspan x="20" y="274">Bio</tspan>
                        <tspan x="57.752" y="274" font-family="HelveticaNeue, Helvetica Neue" font-weight="normal">logy lorem</tspan>
                        <tspan x="20" y="309">Bio</tspan>
                        <tspan x="57.752" y="309" font-family="HelveticaNeue, Helvetica Neue" font-weight="normal">logy lorem ipsum</tspan>
                        <tspan x="20" y="344">Bio</tspan>
                        <tspan x="57.752" y="344" font-family="HelveticaNeue, Helvetica Neue" font-weight="normal">mimetic lorem ipsum dolor</tspan>
                        <tspan x="20" y="379" font-family="HelveticaNeue, Helvetica Neue" font-weight="normal">Synthetic </tspan>
                        <tspan x="127.136" y="379">Bio</tspan>
                        <tspan x="164.888" y="379" font-family="HelveticaNeue, Helvetica Neue" font-weight="normal">logy</tspan>
                        <tspan x="20" y="414" font-family="HelveticaNeue, Helvetica Neue" font-weight="normal">Systems </tspan>
                        <tspan x="119.144" y="414">Bio</tspan>
                        <tspan x="156.896" y="414" font-family="HelveticaNeue, Helvetica Neue" font-weight="normal">logy lorem ipsum</tspan>
                    </text>
                </g>
            </g>
        </g>
    </g>
</svg>