<?xml version="1.0" encoding="UTF-8"?>
<svg width="1280px" height="244px" viewBox="0 0 1280 244" version="1.1" xmlns="http://www.w3.org/2000/svg" xmlns:xlink="http://www.w3.org/1999/xlink">
    <!-- Generator: Sketch 44.1 (41455) - http://www.bohemiancoding.com/sketch -->
    <title>stickysidebar</title>
    <desc>Created with Sketch.</desc>
    <defs></defs>
    <g id="Pattern-Library" stroke="none" stroke-width="1" fill="none" fill-rule="evenodd">
        <g id="stickysidebar">
            <rect id="Rectangle-5" fill="#FFFFFF" x="0" y="0" width="1280" height="244"></rect>
            <rect id="Rectangle-5" fill="#DBDBDB" x="0" y="0" width="226" height="244"></rect>
            <text id="Overview-Team-Traini" font-family="HelveticaNeue-Bold, Helvetica Neue" font-size="14" font-weight="bold" line-spacing="35">
                <tspan x="121.022" y="25" fill="#000000">Overview</tspan>
                <tspan x="183" y="25" fill="#4990E2"></tspan>
                <tspan x="145.69" y="60" fill="#4990E2">Team</tspan>
                <tspan x="33.452" y="95" fill="#4990E2">Training Opportunities</tspan>
                <tspan x="23.232" y="130" fill="#4990E2">Products + Applications </tspan>
                <tspan x="100.596" y="165" fill="#4990E2">Publications</tspan>
                <tspan x="84.356" y="200" fill="#4990E2">News + Events</tspan>
            </text>
            <rect id="Rectangle-4" fill="#000000" x="197" y="22" width="8" height="8" rx="4"></rect>
            <rect id="Rectangle-4" fill="#FFFFFF" x="197" y="61" width="8" height="8" rx="4"></rect>
            <rect id="Rectangle-4" fill="#FFFFFF" x="197" y="96" width="8" height="8" rx="4"></rect>
            <rect id="Rectangle-4" fill="#FFFFFF" x="197" y="131" width="8" height="8" rx="4"></rect>
            <rect id="Rectangle-4" fill="#FFFFFF" x="197" y="166" width="8" height="8" rx="4"></rect>
            <rect id="Rectangle-4" fill="#FFFFFF" x="197" y="201" width="8" height="8" rx="4"></rect>
            <g id="Count" transform="translate(47.000000, 4.000000)">
                <g id="Group-34">
                    <path d="M57,23.4017629 L57,3 C57,1.34314575 55.6568542,3.66629817e-15 54,-4.4408921e-16 L54,0 L3,0 L3,-4.4408921e-16 C1.34314575,-1.39730022e-16 -6.46995335e-16,1.34314575 -4.4408921e-16,3 L0,3 L-4.4408921e-16,51 C3.43777239e-15,52.6568542 1.34314575,54 3,54 L3,54 L54,54 C55.6568542,54 57,52.6568542 57,51 L57,51 L57,29.6753855 L72.6152344,26.5385742 L57,23.4017629 Z" id="Combined-Shape" fill="#F5E900"></path>
                    <text id="CHAR" font-family="HelveticaNeue-Light, Helvetica Neue" font-size="11" font-weight="300" line-spacing="13" letter-spacing="1.15499985" fill="#000000">
                        <tspan x="12" y="48">CHAR</tspan>
                    </text>
                    <text id="170" font-family="HelveticaNeue-CondensedBold, Helvetica Neue" font-size="13" font-style="condensed" font-weight="bold" line-spacing="13" letter-spacing="1.36499989" fill="#000000">
                        <tspan x="20.5" y="34">40</tspan>
                    </text>
                    <text id="HEADER" font-family="HelveticaNeue-Medium, Helvetica Neue" font-size="10" font-weight="400" line-spacing="13" letter-spacing="0.409090906" fill="#000000">
                        <tspan x="16.8868182" y="15">LINK</tspan>
                    </text>
                </g>
            </g>
        </g>
    </g>
</svg>