<?xml version="1.0" encoding="UTF-8"?>
<svg width="1280px" height="834px" viewBox="0 0 1280 834" version="1.1" xmlns="http://www.w3.org/2000/svg" xmlns:xlink="http://www.w3.org/1999/xlink" style="background: #FFFFFF;">
    <!-- Generator: Sketch 44.1 (41455) - http://www.bohemiancoding.com/sketch -->
    <title>Template Map</title>
    <desc>Created with Sketch.</desc>
    <defs></defs>
    <g id="Sitemap" stroke="none" stroke-width="1" fill="none" fill-rule="evenodd">
        <g id="Template-Map">
            <g id="Group" transform="translate(311.000000, 66.000000)">
                <path d="M380.5,170.5 L527.5,170.5 C528.6046,170.5 529.5,171.3954 529.5,172.5 L529.5,243.5 C529.5,244.6046 528.6046,245.5 527.5,245.5 L380.5,245.5 C379.3954,245.5 378.5,244.6046 378.5,243.5 L378.5,172.5 C378.5,171.3954 379.3954,170.5 380.5,170.5 Z" id="Fill-1" fill="#FFFFFF"></path>
                <path d="M380.5,170.5 L527.5,170.5 C528.6046,170.5 529.5,171.3954 529.5,172.5 L529.5,243.5 C529.5,244.6046 528.6046,245.5 527.5,245.5 L380.5,245.5 C379.3954,245.5 378.5,244.6046 378.5,243.5 L378.5,172.5 C378.5,171.3954 379.3954,170.5 380.5,170.5 Z" id="Stroke-3" stroke="#000000" stroke-linecap="round" stroke-linejoin="round"></path>
                <text id="Engage" font-family="Avenir-Heavy, Avenir" font-size="15" font-weight="600" fill="#000000">
                    <tspan x="427.0348" y="213.15614">Engage</tspan>
                </text>
                <polygon id="Fill-4" fill="#000000" points="378 205.875 378 170 414.1625 170"></polygon>
                <text id="3.0" font-family="Avenir-Heavy, Avenir" font-size="10" font-weight="600" fill="#FFFFFF">
                    <tspan x="380.6225" y="185.215027">3.0</tspan>
                </text>
                <path d="M561.5,170.5 L708.5,170.5 C709.6046,170.5 710.5,171.3954 710.5,172.5 L710.5,243.5 C710.5,244.6046 709.6046,245.5 708.5,245.5 L561.5,245.5 C560.3954,245.5 559.5,244.6046 559.5,243.5 L559.5,172.5 C559.5,171.3954 560.3954,170.5 561.5,170.5 Z" id="Fill-5" fill="#FFFFFF"></path>
                <path d="M561.5,170.5 L708.5,170.5 C709.6046,170.5 710.5,171.3954 710.5,172.5 L710.5,243.5 C710.5,244.6046 709.6046,245.5 708.5,245.5 L561.5,245.5 C560.3954,245.5 559.5,244.6046 559.5,243.5 L559.5,172.5 C559.5,171.3954 560.3954,170.5 561.5,170.5 Z" id="Stroke-6" stroke="#000000" stroke-linecap="round" stroke-linejoin="round"></path>
                <text id="News-+-Events" font-family="Avenir-Heavy, Avenir" font-size="15" font-weight="600" fill="#000000">
                    <tspan x="582.4873" y="213.15614">News + Events</tspan>
                </text>
                <polygon id="Fill-7" fill="#000000" points="559 205.875 559 170 595.2875 170"></polygon>
                <text id="4.0" font-family="Avenir-Heavy, Avenir" font-size="10" font-weight="600" fill="#FFFFFF">
                    <tspan x="561.7475" y="185.215027">4.0</tspan>
                </text>
                <path d="M10.5,170.5 L157.5,170.5 C158.6046,170.5 159.5,171.3954 159.5,172.5 L159.5,243.5 C159.5,244.6046 158.6046,245.5 157.5,245.5 L10.5,245.5 C9.39543,245.5 8.5,244.6046 8.5,243.5 L8.5,172.5 C8.5,171.3954 9.39543,170.5 10.5,170.5 Z" id="Fill-8" fill="#FFFFFF"></path>
                <path d="M10.5,170.5 L157.5,170.5 C158.6046,170.5 159.5,171.3954 159.5,172.5 L159.5,243.5 C159.5,244.6046 158.6046,245.5 157.5,245.5 L10.5,245.5 C9.3954,245.5 8.5,244.6046 8.5,243.5 L8.5,172.5 C8.5,171.3954 9.3954,170.5 10.5,170.5 Z" id="Stroke-9" stroke="#000000" stroke-linecap="round" stroke-linejoin="round"></path>
                <text id="Research" font-family="Avenir-Heavy, Avenir" font-size="15" font-weight="600" fill="#000000">
                    <tspan x="52.39725" y="213.15614">Research</tspan>
                </text>
                <polygon id="Fill-10" fill="#000000" points="8 205.875 8 170 44.25 170"></polygon>
                <text id="1.0" font-family="Avenir-Heavy, Avenir" font-size="10" font-weight="600" fill="#FFFFFF">
                    <tspan x="10.71" y="185.215027">1.0</tspan>
                </text>
                <path d="M10.5,0.5 L157.5,0.5 C158.6046,0.5 159.5,1.3954 159.5,2.5 L159.5,73.5 C159.5,74.6046 158.6046,75.5 157.5,75.5 L10.5,75.5 C9.39543,75.5 8.5,74.6046 8.5,73.5 L8.5,2.5 C8.5,1.3954 9.39543,0.5 10.5,0.5 Z" id="Fill-11" fill="#FFFFFF"></path>
                <path d="M10.5,0.5 L157.5,0.5 C158.6046,0.5 159.5,1.3954 159.5,2.5 L159.5,73.5 C159.5,74.6046 158.6046,75.5 157.5,75.5 L10.5,75.5 C9.3954,75.5 8.5,74.6046 8.5,73.5 L8.5,2.5 C8.5,1.3954 9.3954,0.5 10.5,0.5 Z" id="Stroke-12" stroke="#000000" stroke-width="3" stroke-linecap="round" stroke-linejoin="round"></path>
                <text id="HOME" font-family="Avenir-Heavy, Avenir" font-size="15" font-weight="600" fill="#000000">
                    <tspan x="60.45975" y="43.4061403">HOME</tspan>
                </text>
                <polygon id="Fill-13" fill="#000000" points="8 36.125 8 0 44.25 0"></polygon>
                <text id="0.0" font-family="Avenir-Heavy, Avenir" font-size="10" font-weight="600" fill="#FFFFFF">
                    <tspan x="10.71" y="15.4650269">0.0</tspan>
                </text>
                <path d="M84.5,77.1672 L84.5,82.6672 L84.5,109.0703 C84.5,115.6977 89.1648,121.5 95.7922,121.5 L358.0306,121.5 L441.7048,121.5 C448.3322,121.5 453.5,126.4429 453.5,133.0703 L453.5,162.875 L453.5,169.875" id="Stroke-14" stroke="#000000" stroke-linecap="round" stroke-linejoin="round"></path>
                <path d="M84.5,77.1672 L84.5,82.6672 L84.5,109.1221 C84.5,115.7495 89.1648,121.5 95.7922,121.5 L360.4476,121.5 L622.8298,121.5 C629.4572,121.5 635.5,126.4947 635.5,133.1221 L635.5,162.875 L635.5,169.875" id="Stroke-15" stroke="#000000" stroke-linecap="round" stroke-linejoin="round"></path>
                <path d="M84.5,77.1672 L84.5,82.6672 L84.5,109.3164 C84.5,115.9438 89.1648,121.5 95.7922,121.5 L169.2227,121.5 L253.7369,121.5 C260.3643,121.5 265.5,126.689 265.5,133.3164 L265.5,162.875 L265.5,169.875" id="Stroke-16" stroke="#000000" stroke-linecap="round" stroke-linejoin="round"></path>
                <path d="M197,549 L344,549 C345.1046,549 346,549.8954 346,551 L346,603 C346,604.10457 345.1046,605 344,605 L197,605 C195.8954,605 195,604.10457 195,603 L195,551 C195,549.8954 195.8954,549 197,549 Z" id="Fill-17" fill="#FFFFFF"></path>
                <path d="M197,549 L344,549 C345.1046,549 346,549.8954 346,551 L346,603 C346,604.1046 345.1046,605 344,605 L197,605 C195.8954,605 195,604.1046 195,603 L195,551 C195,549.8954 195.8954,549 197,549 Z" id="Stroke-18" stroke="#000000" stroke-linecap="round" stroke-linejoin="round"></path>
                <text id="(Tools-+-Tech)" font-family="Avenir-Heavy, Avenir" font-size="15" font-weight="600" fill="#000000">
                    <tspan x="227" y="582">(Tools + Tech)</tspan>
                </text>
                <polygon id="Fill-19" fill="#000000" points="194 584.625 194 549 230.0242 549"></polygon>
                <text id="5.0" font-family="Avenir-Heavy, Avenir" font-size="9" font-weight="600" fill="#FFFFFF">
                    <tspan x="196" y="564">5.0</tspan>
                </text>
                <path d="M564,549 L712,549 C713.1046,549 714,549.8954 714,551 L714,603 C714,604.10457 713.1046,605 712,605 L564,605 C562.8954,605 562,604.10457 562,603 L562,551 C562,549.8954 562.8954,549 564,549 Z" id="Fill-23" fill="#FFFFFF"></path>
                <path d="M564,549 L712,549 C713.105,549 714,549.8954 714,551 L714,603 C714,604.1046 713.105,605 712,605 L564,605 C562.8954,605 562,604.1046 562,603 L562,551 C562,549.8954 562.8954,549 564,549 Z" id="Stroke-24" stroke="#000000" stroke-linecap="round" stroke-linejoin="round" stroke-dasharray="4,4"></path>
                <text id="Search" font-family="Avenir-Heavy, Avenir" font-size="15" font-weight="600" fill="#808080">
                    <tspan x="614" y="582">Search</tspan>
                </text>
                <path d="M192.5,170.5 L339.5,170.5 C340.6046,170.5 341.5,171.3954 341.5,172.5 L341.5,243.5 C341.5,244.6046 340.6046,245.5 339.5,245.5 L192.5,245.5 C191.3954,245.5 190.5,244.6046 190.5,243.5 L190.5,172.5 C190.5,171.3954 191.3954,170.5 192.5,170.5 Z" id="Fill-25" fill="#FFFFFF"></path>
                <path d="M192.5,170.5 L339.5,170.5 C340.6046,170.5 341.5,171.3954 341.5,172.5 L341.5,243.5 C341.5,244.6046 340.6046,245.5 339.5,245.5 L192.5,245.5 C191.3954,245.5 190.5,244.6046 190.5,243.5 L190.5,172.5 C190.5,171.3954 191.3954,170.5 192.5,170.5 Z" id="Stroke-26" stroke="#000000" stroke-linecap="round" stroke-linejoin="round"></path>
                <text id="Team" font-family="Avenir-Heavy, Avenir" font-size="15" font-weight="600" fill="#000000">
                    <tspan x="247.4069" y="213.15614">Team</tspan>
                </text>
                <polygon id="Fill-27" fill="#000000" points="190 205.875 190 170 226.1947 170"></polygon>
                <text id="2.0" font-family="Avenir-Heavy, Avenir" font-size="10" font-weight="600" fill="#FFFFFF">
                    <tspan x="192.6547" y="185.215027">2.0</tspan>
                </text>
                <path d="M84.5,75.6672 L84.5,169.875" id="Stroke-28" stroke="#000000" stroke-linecap="round" stroke-linejoin="round"></path>
                <path d="M576.5,277.5 L707.5,277.5 C708.6046,277.5 709.5,278.3954 709.5,279.5 L709.5,314.5 C709.5,315.6046 708.6046,316.5 707.5,316.5 L576.5,316.5 C575.3954,316.5 574.5,315.6046 574.5,314.5 L574.5,279.5 C574.5,278.3954 575.3954,277.5 576.5,277.5 Z" id="Fill-29" fill="#FFFFFF"></path>
                <path d="M576.5,277.5 L707.5,277.5 C708.6046,277.5 709.5,278.3954 709.5,279.5 L709.5,314.5 C709.5,315.6046 708.6046,316.5 707.5,316.5 L576.5,316.5 C575.3954,316.5 574.5,315.6046 574.5,314.5 L574.5,279.5 C574.5,278.3954 575.3954,277.5 576.5,277.5 Z" id="Stroke-30" stroke="#000000" stroke-linecap="round" stroke-linejoin="round"></path>
                <path d="M569.5,270.5 L700.5,270.5 C701.6046,270.5 702.5,271.3954 702.5,272.5 L702.5,307.5 C702.5,308.6046 701.6046,309.5 700.5,309.5 L569.5,309.5 C568.3954,309.5 567.5,308.6046 567.5,307.5 L567.5,272.5 C567.5,271.3954 568.3954,270.5 569.5,270.5 Z" id="Fill-31" fill="#FFFFFF"></path>
                <path d="M569.5,270.5 L700.5,270.5 C701.6046,270.5 702.5,271.3954 702.5,272.5 L702.5,307.5 C702.5,308.6046 701.6046,309.5 700.5,309.5 L569.5,309.5 C568.3954,309.5 567.5,308.6046 567.5,307.5 L567.5,272.5 C567.5,271.3954 568.3954,270.5 569.5,270.5 Z" id="Stroke-32" stroke="#000000" stroke-linecap="round" stroke-linejoin="round"></path>
                <path d="M562.5,263.5 L693.5,263.5 C694.6046,263.5 695.5,264.3954 695.5,265.5 L695.5,300.5 C695.5,301.6046 694.6046,302.5 693.5,302.5 L562.5,302.5 C561.3954,302.5 560.5,301.6046 560.5,300.5 L560.5,265.5 C560.5,264.3954 561.3954,263.5 562.5,263.5 Z" id="Fill-33" fill="#FFFFFF"></path>
                <path d="M562.5,263.5 L693.5,263.5 C694.6046,263.5 695.5,264.3954 695.5,265.5 L695.5,300.5 C695.5,301.6046 694.6046,302.5 693.5,302.5 L562.5,302.5 C561.3954,302.5 560.5,301.6046 560.5,300.5 L560.5,265.5 C560.5,264.3954 561.3954,263.5 562.5,263.5 Z" id="Stroke-34" stroke="#000000" stroke-linecap="round" stroke-linejoin="round"></path>
                <text id="4.x-" font-family="Avenir-Medium, Avenir" font-size="12.5" font-weight="400" fill="#7F7F7F">
                    <tspan x="567.28755" y="286.946134">4.x </tspan>
                </text>
                <text id="-(News)" font-family="Avenir-Medium, Avenir" font-size="12.5" font-weight="400" fill="#000000">
                    <tspan x="587.67505" y="286.946134"> (News)</tspan>
                </text>
                <path d="M577.5,347.5 L708.5,347.5 C709.6046,347.5 710.5,348.3954 710.5,349.5 L710.5,384.5 C710.5,385.6046 709.6046,386.5 708.5,386.5 L577.5,386.5 C576.3954,386.5 575.5,385.6046 575.5,384.5 L575.5,349.5 C575.5,348.3954 576.3954,347.5 577.5,347.5 Z" id="Fill-35" fill="#FFFFFF"></path>
                <path d="M577.5,347.5 L708.5,347.5 C709.6046,347.5 710.5,348.3954 710.5,349.5 L710.5,384.5 C710.5,385.6046 709.6046,386.5 708.5,386.5 L577.5,386.5 C576.3954,386.5 575.5,385.6046 575.5,384.5 L575.5,349.5 C575.5,348.3954 576.3954,347.5 577.5,347.5 Z" id="Stroke-36" stroke="#000000" stroke-linecap="round" stroke-linejoin="round"></path>
                <path d="M570.5,340.5 L701.5,340.5 C702.6046,340.5 703.5,341.3954 703.5,342.5 L703.5,377.5 C703.5,378.6046 702.6046,379.5 701.5,379.5 L570.5,379.5 C569.3954,379.5 568.5,378.6046 568.5,377.5 L568.5,342.5 C568.5,341.3954 569.3954,340.5 570.5,340.5 Z" id="Fill-37" fill="#FFFFFF"></path>
                <path d="M570.5,340.5 L701.5,340.5 C702.6046,340.5 703.5,341.3954 703.5,342.5 L703.5,377.5 C703.5,378.6046 702.6046,379.5 701.5,379.5 L570.5,379.5 C569.3954,379.5 568.5,378.6046 568.5,377.5 L568.5,342.5 C568.5,341.3954 569.3954,340.5 570.5,340.5 Z" id="Stroke-38" stroke="#000000" stroke-linecap="round" stroke-linejoin="round"></path>
                <path d="M563.5,333.5 L694.5,333.5 C695.6046,333.5 696.5,334.3954 696.5,335.5 L696.5,370.5 C696.5,371.6046 695.6046,372.5 694.5,372.5 L563.5,372.5 C562.3954,372.5 561.5,371.6046 561.5,370.5 L561.5,335.5 C561.5,334.3954 562.3954,333.5 563.5,333.5 Z" id="Fill-39" fill="#FFFFFF"></path>
                <path d="M563.5,333.5 L694.5,333.5 C695.6046,333.5 696.5,334.3954 696.5,335.5 L696.5,370.5 C696.5,371.6046 695.6046,372.5 694.5,372.5 L563.5,372.5 C562.3954,372.5 561.5,371.6046 561.5,370.5 L561.5,335.5 C561.5,334.3954 562.3954,333.5 563.5,333.5 Z" id="Stroke-40" stroke="#000000" stroke-linecap="round" stroke-linejoin="round"></path>
                <text id="4.x-" font-family="Avenir-Medium, Avenir" font-size="12.5" font-weight="400" fill="#7F7F7F">
                    <tspan x="568.28755" y="356.819934">4.x </tspan>
                </text>
                <text id="-(Events)" font-family="Avenir-Medium, Avenir" font-size="12.5" font-weight="400" fill="#000000">
                    <tspan x="588.67505" y="356.819934"> (Events)</tspan>
                </text>
                <path d="M10.5,315.5 L157.5,315.5 C158.6046,315.5 159.5,316.3954 159.5,317.5 L159.5,352.5 C159.5,353.6046 158.6046,354.5 157.5,354.5 L10.5,354.5 C9.39543,354.5 8.5,353.6046 8.5,352.5 L8.5,317.5 C8.5,316.3954 9.39543,315.5 10.5,315.5 Z" id="Fill-41" fill="#FFFFFF"></path>
                <path d="M10.5,315.5 L157.5,315.5 C158.6046,315.5 159.5,316.3954 159.5,317.5 L159.5,352.5 C159.5,353.6046 158.6046,354.5 157.5,354.5 L10.5,354.5 C9.3954,354.5 8.5,353.6046 8.5,352.5 L8.5,317.5 C8.5,316.3954 9.3954,315.5 10.5,315.5 Z" id="Stroke-42" stroke="#000000" stroke-linecap="round" stroke-linejoin="round"></path>
                <text id="1.2-" font-family="Avenir-Medium, Avenir" font-size="12.5" font-weight="400" fill="#7F7F7F">
                    <tspan x="16.56493" y="339.039634">1.2 </tspan>
                </text>
                <text id="Cellular" font-family="Avenir-Medium, Avenir" font-size="12.5" font-weight="400" fill="#000000">
                    <tspan x="37.41493" y="339.039634">Cellular</tspan>
                </text>
                <path d="M11.5,263.5 L158.5,263.5 C159.6046,263.5 160.5,264.3954 160.5,265.5 L160.5,300.5 C160.5,301.6046 159.6046,302.5 158.5,302.5 L11.5,302.5 C10.39543,302.5 9.5,301.6046 9.5,300.5 L9.5,265.5 C9.5,264.3954 10.39543,263.5 11.5,263.5 Z" id="Fill-43" fill="#FFFFFF"></path>
                <path d="M11.5,263.5 L158.5,263.5 C159.6046,263.5 160.5,264.3954 160.5,265.5 L160.5,300.5 C160.5,301.6046 159.6046,302.5 158.5,302.5 L11.5,302.5 C10.3954,302.5 9.5,301.6046 9.5,300.5 L9.5,265.5 C9.5,264.3954 10.3954,263.5 11.5,263.5 Z" id="Stroke-44" stroke="#000000" stroke-linecap="round" stroke-linejoin="round"></path>
                <text id="1.1-" font-family="Avenir-Medium, Avenir" font-size="12.5" font-weight="400" fill="#7F7F7F">
                    <tspan x="17.50417" y="286.946134">1.1 </tspan>
                </text>
                <text id="Molecular" font-family="Avenir-Medium, Avenir" font-size="12.5" font-weight="400" fill="#000000">
                    <tspan x="38.35417" y="286.946134">Molecular</tspan>
                </text>
                <path d="M564,627 L712,627 C713.1046,627 714,627.89543 714,629 L714,664 C714,665.104569 713.1046,666 712,666 L564,666 C562.8954,666 562,665.104569 562,664 L562,629 C562,627.89543 562.8954,627 564,627 Z" id="Fill-45" fill="#FFFFFF"></path>
                <path d="M564,627 L712,627 C713.105,627 714,627.8954 714,629 L714,664 C714,665.1046 713.105,666 712,666 L564,666 C562.8954,666 562,665.1046 562,664 L562,629 C562,627.8954 562.8954,627 564,627 Z" id="Stroke-46" stroke="#000000" stroke-linecap="round" stroke-linejoin="round"></path>
                <text id="7.0" font-family="Avenir-Medium, Avenir" font-size="12.5" font-weight="400" fill="#7F7F7F">
                    <tspan x="570" y="651">7.0 </tspan>
                </text>
                <text id="Search-Results" font-family="Avenir-Medium, Avenir" font-size="12.5" font-weight="400" fill="#000000">
                    <tspan x="591" y="651">Search Results</tspan>
                </text>
                <text id="Secondary-navigation" font-family="Avenir-Heavy, Avenir" font-size="16" font-weight="600" fill="#000000">
                    <tspan x="0" y="561">Secondary navigation</tspan>
                </text>
                <path d="M9.5,420.5 L156.5,420.5 C157.6046,420.5 158.5,421.3954 158.5,422.5 L158.5,457.5 C158.5,458.6046 157.6046,459.5 156.5,459.5 L9.5,459.5 C8.39543,459.5 7.5,458.6046 7.5,457.5 L7.5,422.5 C7.5,421.3954 8.39543,420.5 9.5,420.5 Z" id="Fill-47" fill="#FFFFFF"></path>
                <path d="M9.5,420.5 L156.5,420.5 C157.6046,420.5 158.5,421.3954 158.5,422.5 L158.5,457.5 C158.5,458.6046 157.6046,459.5 156.5,459.5 L9.5,459.5 C8.3954,459.5 7.5,458.6046 7.5,457.5 L7.5,422.5 C7.5,421.3954 8.3954,420.5 9.5,420.5 Z" id="Stroke-48" stroke="#000000" stroke-linecap="round" stroke-linejoin="round"></path>
                <text id="1.4-" font-family="Avenir-Medium, Avenir" font-size="12.5" font-weight="400" fill="#7F7F7F">
                    <tspan x="15.56493" y="443.505834">1.4 </tspan>
                </text>
                <text id="Tissue" font-family="Avenir-Medium, Avenir" font-size="12.5" font-weight="400" fill="#000000">
                    <tspan x="36.41493" y="443.505834">Tissue</tspan>
                </text>
                <path d="M10.5,368.5 L157.5,368.5 C158.6046,368.5 159.5,369.3954 159.5,370.5 L159.5,405.5 C159.5,406.6046 158.6046,407.5 157.5,407.5 L10.5,407.5 C9.39543,407.5 8.5,406.6046 8.5,405.5 L8.5,370.5 C8.5,369.3954 9.39543,368.5 10.5,368.5 Z" id="Fill-49" fill="#FFFFFF"></path>
                <path d="M10.5,368.5 L157.5,368.5 C158.6046,368.5 159.5,369.3954 159.5,370.5 L159.5,405.5 C159.5,406.6046 158.6046,407.5 157.5,407.5 L10.5,407.5 C9.3954,407.5 8.5,406.6046 8.5,405.5 L8.5,370.5 C8.5,369.3954 9.3954,368.5 10.5,368.5 Z" id="Stroke-50" stroke="#000000" stroke-linecap="round" stroke-linejoin="round"></path>
                <text id="1.3-" font-family="Avenir-Medium, Avenir" font-size="12" font-weight="400" fill="#7F7F7F">
                    <tspan x="16.50417" y="391.095332">1.3 </tspan>
                </text>
                <text id="Microbic" font-family="Avenir-Medium, Avenir" font-size="12" font-weight="400" fill="#000000">
                    <tspan x="36.52017" y="391.095332">Microbic</tspan>
                </text>
                <path d="M380,549 L527,549 C528.1046,549 529,549.8954 529,551 L529,602 C529,603.10457 528.1046,604 527,604 L380,604 C378.8954,604 378,603.10457 378,602 L378,551 C378,549.8954 378.8954,549 380,549 Z" id="Fill-51" fill="#FFFFFF"></path>
                <path d="M380,549 L527,549 C528.1046,549 529,549.8954 529,551 L529,602 C529,603.1046 528.1046,604 527,604 L380,604 C378.8954,604 378,603.1046 378,602 L378,551 C378,549.8954 378.8954,549 380,549 Z" id="Stroke-52" stroke="#000000" stroke-linecap="round" stroke-linejoin="round"></path>
                <text id="Contact-Us" font-family="Avenir-Heavy, Avenir" font-size="15" font-weight="600" fill="#000000">
                    <tspan x="417" y="581">Contact Us</tspan>
                </text>
                <polygon id="Fill-53" fill="#000000" points="378 583.84597 378 548 413.5788 548"></polygon>
                <text id="6.0" font-family="Avenir-Heavy, Avenir" font-size="9" font-weight="600" fill="#FFFFFF">
                    <tspan x="380" y="563">6.0</tspan>
                </text>
                <path d="M382.5,263.5 L529.5,263.5 C530.6046,263.5 531.5,264.3954 531.5,265.5 L531.5,300.5 C531.5,301.6046 530.6046,302.5 529.5,302.5 L382.5,302.5 C381.3954,302.5 380.5,301.6046 380.5,300.5 L380.5,265.5 C380.5,264.3954 381.3954,263.5 382.5,263.5 Z" id="Fill-54" fill="#FFFFFF"></path>
                <path d="M382.5,263.5 L529.5,263.5 C530.6046,263.5 531.5,264.3954 531.5,265.5 L531.5,300.5 C531.5,301.6046 530.6046,302.5 529.5,302.5 L382.5,302.5 C381.3954,302.5 380.5,301.6046 380.5,300.5 L380.5,265.5 C380.5,264.3954 381.3954,263.5 382.5,263.5 Z" id="Stroke-55" stroke="#000000" stroke-linecap="round" stroke-linejoin="round"></path>
                <text id="3.1-" font-family="Avenir-Medium, Avenir" font-size="12.5" font-weight="400" fill="#7F7F7F">
                    <tspan x="388.10175" y="286.946134">3.1 </tspan>
                </text>
                <text id="Industry" font-family="Avenir-Medium, Avenir" font-size="12.5" font-weight="400" fill="#000000">
                    <tspan x="408.95175" y="286.946134">Industry</tspan>
                </text>
                <path d="M380.5,315.5 L527.5,315.5 C528.6046,315.5 529.5,316.3954 529.5,317.5 L529.5,352.5 C529.5,353.6046 528.6046,354.5 527.5,354.5 L380.5,354.5 C379.3954,354.5 378.5,353.6046 378.5,352.5 L378.5,317.5 C378.5,316.3954 379.3954,315.5 380.5,315.5 Z" id="Fill-56" fill="#FFFFFF"></path>
                <path d="M380.5,315.5 L527.5,315.5 C528.6046,315.5 529.5,316.3954 529.5,317.5 L529.5,352.5 C529.5,353.6046 528.6046,354.5 527.5,354.5 L380.5,354.5 C379.3954,354.5 378.5,353.6046 378.5,352.5 L378.5,317.5 C378.5,316.3954 379.3954,315.5 380.5,315.5 Z" id="Stroke-57" stroke="#000000" stroke-linecap="round" stroke-linejoin="round"></path>
                <text id="3.2-" font-family="Avenir-Medium, Avenir" font-size="12.5" font-weight="400" fill="#7F7F7F">
                    <tspan x="386.16255" y="339.039634">3.2 </tspan>
                </text>
                <text id="Careers" font-family="Avenir-Medium, Avenir" font-size="12.5" font-weight="400" fill="#000000">
                    <tspan x="407.01255" y="339.039634">Careers</tspan>
                </text>
                <path d="M380.5,368.5 L527.5,368.5 C528.6046,368.5 529.5,369.3954 529.5,370.5 L529.5,405.5 C529.5,406.6046 528.6046,407.5 527.5,407.5 L380.5,407.5 C379.3954,407.5 378.5,406.6046 378.5,405.5 L378.5,370.5 C378.5,369.3954 379.3954,368.5 380.5,368.5 Z" id="Fill-58" fill="#FFFFFF"></path>
                <path d="M380.5,368.5 L527.5,368.5 C528.6046,368.5 529.5,369.3954 529.5,370.5 L529.5,405.5 C529.5,406.6046 528.6046,407.5 527.5,407.5 L380.5,407.5 C379.3954,407.5 378.5,406.6046 378.5,405.5 L378.5,370.5 C378.5,369.3954 379.3954,368.5 380.5,368.5 Z" id="Stroke-59" stroke="#000000" stroke-linecap="round" stroke-linejoin="round"></path>
                <text id="3.3-" font-family="Avenir-Medium, Avenir" font-size="12.5" font-weight="400" fill="#7F7F7F">
                    <tspan x="386.16255" y="391.412334">3.3 </tspan>
                </text>
                <text id="Grad.-Edu." font-family="Avenir-Medium, Avenir" font-size="12.5" font-weight="400" fill="#000000">
                    <tspan x="407.01255" y="391.412334">Grad. Edu.</tspan>
                </text>
            </g>
            <circle id="Oval" fill="#0A56FD" cx="454.5" cy="80.5" r="5.5"></circle>
            <circle id="Oval" fill="#00E487" cx="454.5" cy="251.5" r="5.5"></circle>
            <circle id="Oval" fill="#00E487" cx="823.5" cy="251.5" r="5.5"></circle>
            <circle id="Oval" fill="#005289" cx="641.5" cy="251.5" r="5.5"></circle>
            <circle id="Oval" fill="#F5A902" cx="454.5" cy="347.5" r="5.5"></circle>
            <circle id="Oval" fill="#F5A902" cx="454.5" cy="401.5" r="5.5"></circle>
            <circle id="Oval" fill="#F5A902" cx="454.5" cy="453.5" r="5.5"></circle>
            <circle id="Oval" fill="#F5A902" cx="454.5" cy="506.5" r="5.5"></circle>
            <circle id="Oval" fill="#00E487" cx="641.5" cy="627.5" r="5.5"></circle>
            <circle id="Oval" fill="#FF1C78" cx="826.5" cy="347.5" r="5.5"></circle>
            <circle id="Oval" fill="#FF1C78" cx="826.5" cy="401.5" r="5.5"></circle>
            <circle id="Oval" fill="#FF1C78" cx="992.5" cy="348.5" r="5.5"></circle>
            <circle id="Oval" fill="#FF1C78" cx="992.5" cy="419.5" r="5.5"></circle>
            <circle id="Oval" fill="#FF1C78" cx="826.5" cy="454.5" r="5.5"></circle>
            <circle id="Oval" fill="#FF1C78" cx="824.5" cy="627.5" r="5.5"></circle>
            <circle id="Oval" fill="#005289" cx="1004.5" cy="249.5" r="5.5"></circle>
            <circle id="Oval" fill="#F5E900" cx="1004.5" cy="631.5" r="5.5"></circle>
            <circle id="Oval" fill="#F5E900" cx="1004.5" cy="713.5" r="5.5"></circle>
            <g id="Group-2" transform="translate(57.000000, 554.000000)">
                <circle id="Oval" fill="#0A56FD" cx="5.5" cy="7.5" r="5.5"></circle>
                <circle id="Oval" fill="#005289" cx="5.5" cy="41.5" r="5.5"></circle>
                <circle id="Oval" fill="#00E487" cx="5.5" cy="75.5" r="5.5"></circle>
                <circle id="Oval" fill="#F5E900" cx="5.5" cy="143.5" r="5.5"></circle>
                <circle id="Oval" fill="#F5A902" cx="5.5" cy="109.5" r="5.5"></circle>
                <circle id="Oval" fill="#FF1C78" cx="5.5" cy="177.5" r="5.5"></circle>
                <text id="Homepage-Card-List-L" font-family="HelveticaNeue-Light, Helvetica Neue" font-size="13" font-weight="300" letter-spacing="0.5" fill="#000000">
                    <tspan x="20" y="13">Homepage</tspan>
                    <tspan x="20" y="46.8999996">Card List</tspan>
                    <tspan x="20" y="80.7999992">Landing Page</tspan>
                    <tspan x="20" y="114.699999">Focus Area Page</tspan>
                    <tspan x="20" y="148.599998">List Page</tspan>
                    <tspan x="20" y="182.499998">Content Pag</tspan>
                    <tspan x="96.064" y="182.499998">e</tspan>
                </text>
            </g>
        </g>
    </g>
</svg>